<svg xmlns="http://www.w3.org/2000/svg" xmlns:xlink="http://www.w3.org/1999/xlink" width="1366" zoomAndPan="magnify" viewBox="0 0 1024.5 576" height="768" preserveAspectRatio="xMidYMid meet" version="1.0"><defs><clipPath id="c817a52266"><path d="M 0 518.289062 L 1024 518.289062 L 1024 575.859375 L 0 575.859375 Z M 0 518.289062 " clip-rule="nonzero"/></clipPath><clipPath id="557b8e93a3"><path d="M 0 532.246094 L 1024 532.246094 L 1024 575.859375 L 0 575.859375 Z M 0 532.246094 " clip-rule="nonzero"/></clipPath><clipPath id="3f009049dd"><path d="M -5.578125 585.839844 C 166.019531 585.839844 166.019531 590.785156 337.617188 590.785156 C 509.210938 590.785156 509.210938 532.457031 680.808594 532.457031 C 852.402344 532.457031 852.402344 543.5625 1024 543.5625 L 1024 690.257812 L -5.578125 690.257812 Z M -5.578125 585.839844 " clip-rule="nonzero"/></clipPath></defs><g clip-path="url(#c817a52266)"><path fill="#2c3e50" d="M -5.578125 518.289062 L 1036.136719 518.289062 L 1036.136719 694.660156 L -5.578125 694.660156 Z M -5.578125 518.289062 " fill-opacity="1" fill-rule="nonzero"/></g><g clip-path="url(#557b8e93a3)"><g clip-path="url(#3f009049dd)"><path fill="#3498db" d="M -5.578125 461.460938 L 1024 461.460938 L 1024 690.257812 L -5.578125 690.257812 Z M -5.578125 461.460938 " fill-opacity="1" fill-rule="nonzero"/></g></g></svg>