<svg xmlns="http://www.w3.org/2000/svg" xmlns:xlink="http://www.w3.org/1999/xlink" width="1366" zoomAndPan="magnify" viewBox="0 0 1024.5 576" height="768" preserveAspectRatio="xMidYMid meet" version="1.0"><defs><clipPath id="730bcddb0f"><path d="M 0 518.289062 L 1024 518.289062 L 1024 575.859375 L 0 575.859375 Z M 0 518.289062 " clip-rule="nonzero"/></clipPath><clipPath id="a77cd2f4da"><path d="M 0 532.246094 L 1024 532.246094 L 1024 575.859375 L 0 575.859375 Z M 0 532.246094 " clip-rule="nonzero"/></clipPath><clipPath id="1d367950ba"><path d="M -5.578125 585.839844 C 166.019531 585.839844 166.019531 590.785156 337.617188 590.785156 C 509.210938 590.785156 509.210938 532.457031 680.808594 532.457031 C 852.402344 532.457031 852.402344 543.5625 1024 543.5625 L 1024 690.257812 L -5.578125 690.257812 Z M -5.578125 585.839844 " clip-rule="nonzero"/></clipPath><clipPath id="bb71c3eee2"><path d="M 0 518.289062 L 1022.628906 518.289062 L 1022.628906 575.859375 L 0 575.859375 Z M 0 518.289062 " clip-rule="nonzero"/></clipPath><clipPath id="07fb670ac1"><path d="M 0 532.128906 L 1024 532.128906 L 1024 575.859375 L 0 575.859375 Z M 0 532.128906 " clip-rule="nonzero"/></clipPath></defs><g clip-path="url(#730bcddb0f)"><path fill="#2c3e50" d="M -5.578125 518.289062 L 1036.136719 518.289062 L 1036.136719 694.660156 L -5.578125 694.660156 Z M -5.578125 518.289062 " fill-opacity="1" fill-rule="nonzero"/></g><g clip-path="url(#a77cd2f4da)"><g clip-path="url(#1d367950ba)"><path fill="#3498db" d="M -5.578125 461.460938 L 1024 461.460938 L 1024 690.257812 L -5.578125 690.257812 Z M -5.578125 461.460938 " fill-opacity="1" fill-rule="nonzero"/></g></g><g clip-path="url(#bb71c3eee2)"><path fill="#e74c3c" d="M -19.25 518.289062 L 1022.734375 518.289062 L 1022.734375 605.746094 L -19.25 605.746094 Z M -19.25 518.289062 " fill-opacity="1" fill-rule="nonzero"/></g><g clip-path="url(#07fb670ac1)"><path fill="#2c3e50" d="M -17.878906 532.128906 L 1024.105469 532.128906 L 1024.105469 619.589844 L -17.878906 619.589844 Z M -17.878906 532.128906 " fill-opacity="1" fill-rule="nonzero"/></g></svg>